<svg id="visual" viewBox="0 0 960 300" width="960" height="300" xmlns="http://www.w3.org/2000/svg" xmlns:xlink="http://www.w3.org/1999/xlink" version="1.1"><rect x="0" y="0" width="960" height="300" fill="#001220"></rect><path d="M0 214L22.8 208.3C45.7 202.7 91.3 191.3 137 191.8C182.7 192.3 228.3 204.7 274 206.5C319.7 208.3 365.3 199.7 411.2 199.8C457 200 503 209 548.8 208.7C594.7 208.3 640.3 198.7 686 199.2C731.7 199.7 777.3 210.3 823 212.7C868.7 215 914.3 209 937.2 206L960 203L960 301L937.2 301C914.3 301 868.7 301 823 301C777.3 301 731.7 301 686 301C640.3 301 594.7 301 548.8 301C503 301 457 301 411.2 301C365.3 301 319.7 301 274 301C228.3 301 182.7 301 137 301C91.3 301 45.7 301 22.8 301L0 301Z" fill="#4c122b"></path><path d="M0 229L22.8 227C45.7 225 91.3 221 137 220C182.7 219 228.3 221 274 218C319.7 215 365.3 207 411.2 206.7C457 206.3 503 213.7 548.8 215.2C594.7 216.7 640.3 212.3 686 214.2C731.7 216 777.3 224 823 228.8C868.7 233.7 914.3 235.3 937.2 236.2L960 237L960 301L937.2 301C914.3 301 868.7 301 823 301C777.3 301 731.7 301 686 301C640.3 301 594.7 301 548.8 301C503 301 457 301 411.2 301C365.3 301 319.7 301 274 301C228.3 301 182.7 301 137 301C91.3 301 45.7 301 22.8 301L0 301Z" fill="#6f2c3f"></path><path d="M0 248L22.8 243C45.7 238 91.3 228 137 223.5C182.7 219 228.3 220 274 221.7C319.7 223.3 365.3 225.7 411.2 230.2C457 234.7 503 241.3 548.8 241.2C594.7 241 640.3 234 686 233.3C731.7 232.7 777.3 238.3 823 240C868.7 241.7 914.3 239.3 937.2 238.2L960 237L960 301L937.2 301C914.3 301 868.7 301 823 301C777.3 301 731.7 301 686 301C640.3 301 594.7 301 548.8 301C503 301 457 301 411.2 301C365.3 301 319.7 301 274 301C228.3 301 182.7 301 137 301C91.3 301 45.7 301 22.8 301L0 301Z" fill="#934754"></path><path d="M0 265L22.8 262.7C45.7 260.3 91.3 255.7 137 256.3C182.7 257 228.3 263 274 261.3C319.7 259.7 365.3 250.3 411.2 249.3C457 248.3 503 255.7 548.8 257.7C594.7 259.7 640.3 256.3 686 257.5C731.7 258.7 777.3 264.3 823 266.5C868.7 268.7 914.3 267.3 937.2 266.7L960 266L960 301L937.2 301C914.3 301 868.7 301 823 301C777.3 301 731.7 301 686 301C640.3 301 594.7 301 548.8 301C503 301 457 301 411.2 301C365.3 301 319.7 301 274 301C228.3 301 182.7 301 137 301C91.3 301 45.7 301 22.8 301L0 301Z" fill="#b86468"></path><path d="M0 284L22.8 281.7C45.7 279.3 91.3 274.7 137 271.2C182.7 267.7 228.3 265.3 274 267.2C319.7 269 365.3 275 411.2 275.5C457 276 503 271 548.8 271.7C594.7 272.3 640.3 278.7 686 279.7C731.7 280.7 777.3 276.3 823 272.7C868.7 269 914.3 266 937.2 264.5L960 263L960 301L937.2 301C914.3 301 868.7 301 823 301C777.3 301 731.7 301 686 301C640.3 301 594.7 301 548.8 301C503 301 457 301 411.2 301C365.3 301 319.7 301 274 301C228.3 301 182.7 301 137 301C91.3 301 45.7 301 22.8 301L0 301Z" fill="#dd837d"></path></svg>