<svg id="visual" viewBox="0 0 960 300" width="960" height="300" xmlns="http://www.w3.org/2000/svg" xmlns:xlink="http://www.w3.org/1999/xlink" version="1.1"><rect x="0" y="0" width="960" height="300" fill="#001220"></rect><path d="M0 84L22.8 89.7C45.7 95.3 91.3 106.7 137 106.2C182.7 105.7 228.3 93.3 274 91.5C319.7 89.7 365.3 98.3 411.2 98.2C457 98 503 89 548.8 89.3C594.7 89.7 640.3 99.3 686 98.8C731.7 98.3 777.3 87.7 823 85.3C868.7 83 914.3 89 937.2 92L960 95L960 0L937.2 0C914.3 0 868.7 0 823 0C777.3 0 731.7 0 686 0C640.3 0 594.7 0 548.8 0C503 0 457 0 411.2 0C365.3 0 319.7 0 274 0C228.3 0 182.7 0 137 0C91.3 0 45.7 0 22.8 0L0 0Z" fill="#fa7268"></path><path d="M0 69L22.8 71C45.7 73 91.3 77 137 78C182.7 79 228.3 77 274 80C319.7 83 365.3 91 411.2 91.3C457 91.7 503 84.3 548.8 82.8C594.7 81.3 640.3 85.7 686 83.8C731.7 82 777.3 74 823 69.2C868.7 64.3 914.3 62.7 937.2 61.8L960 61L960 0L937.2 0C914.3 0 868.7 0 823 0C777.3 0 731.7 0 686 0C640.3 0 594.7 0 548.8 0C503 0 457 0 411.2 0C365.3 0 319.7 0 274 0C228.3 0 182.7 0 137 0C91.3 0 45.7 0 22.8 0L0 0Z" fill="#ef5f67"></path><path d="M0 50L22.8 55C45.7 60 91.3 70 137 74.5C182.7 79 228.3 78 274 76.3C319.7 74.7 365.3 72.3 411.2 67.8C457 63.3 503 56.7 548.8 56.8C594.7 57 640.3 64 686 64.7C731.7 65.3 777.3 59.7 823 58C868.7 56.3 914.3 58.7 937.2 59.8L960 61L960 0L937.2 0C914.3 0 868.7 0 823 0C777.3 0 731.7 0 686 0C640.3 0 594.7 0 548.8 0C503 0 457 0 411.2 0C365.3 0 319.7 0 274 0C228.3 0 182.7 0 137 0C91.3 0 45.7 0 22.8 0L0 0Z" fill="#e34c67"></path><path d="M0 33L22.8 35.3C45.7 37.7 91.3 42.3 137 41.7C182.7 41 228.3 35 274 36.7C319.7 38.3 365.3 47.7 411.2 48.7C457 49.7 503 42.3 548.8 40.3C594.7 38.3 640.3 41.7 686 40.5C731.7 39.3 777.3 33.7 823 31.5C868.7 29.3 914.3 30.7 937.2 31.3L960 32L960 0L937.2 0C914.3 0 868.7 0 823 0C777.3 0 731.7 0 686 0C640.3 0 594.7 0 548.8 0C503 0 457 0 411.2 0C365.3 0 319.7 0 274 0C228.3 0 182.7 0 137 0C91.3 0 45.7 0 22.8 0L0 0Z" fill="#d53867"></path><path d="M0 14L22.8 16.3C45.7 18.7 91.3 23.3 137 26.8C182.7 30.3 228.3 32.7 274 30.8C319.7 29 365.3 23 411.2 22.5C457 22 503 27 548.8 26.3C594.7 25.7 640.3 19.3 686 18.3C731.7 17.3 777.3 21.7 823 25.3C868.7 29 914.3 32 937.2 33.5L960 35L960 0L937.2 0C914.3 0 868.7 0 823 0C777.3 0 731.7 0 686 0C640.3 0 594.7 0 548.8 0C503 0 457 0 411.2 0C365.3 0 319.7 0 274 0C228.3 0 182.7 0 137 0C91.3 0 45.7 0 22.8 0L0 0Z" fill="#c62368"></path></svg>